<svg id="Layer_1" data-name="Layer 1" xmlns="http://www.w3.org/2000/svg" viewBox="0 0 235 310.73"> <defs> <style>.cls-1{fill: #3fb8af;}</style> </defs> <title>community_sift-logo-rgb</title> <path class="cls-1" d="M45.65,51.82c8.46-.28,7.94-14.4-1.49-12.72C36.32,40.46,38.24,52.07,45.65,51.82Z"/> <path class="cls-1" d="M24,70.66c10.58-.34,9.93-18-1.86-15.9C12.33,56.46,14.73,71,24,70.66Z"/> <path class="cls-1" d="M52.72,88.47c4.28-8.1-3-17-11.48-15.54-5.16.87-6.93,3.54-7.78,5.16a11.35,11.35,0,0,0,0,10.38C37.06,95.25,48.67,96.09,52.72,88.47Z"/> <path class="cls-1" d="M88.31,51.82c8.46-.28,7.95-14.4-1.49-12.72C79,40.46,80.9,52.07,88.31,51.82Z"/> <path class="cls-1" d="M69,70.66c10.58-.34,9.93-18-1.86-15.9C57.31,56.46,59.7,71,69,70.66Z"/> <path class="cls-1" d="M100.95,88.47c4.28-8.1-3-17-11.48-15.54-5.16.87-6.93,3.54-7.78,5.16a11.34,11.34,0,0,0,0,10.38C85.28,95.25,96.89,96.09,100.95,88.47Z"/> <path class="cls-1" d="M136.5,51.82c8.46-.28,7.94-14.4-1.49-12.72C127.17,40.46,129.09,52.07,136.5,51.82Z"/> <path class="cls-1" d="M180.3,51.82c8.46-.28,7.94-14.4-1.49-12.72C171,40.46,172.88,52.07,180.3,51.82Z"/> <path class="cls-1" d="M113.94,70.66c10.58-.34,9.93-18-1.86-15.9C102.28,56.46,104.68,71,113.94,70.66Z"/> <path class="cls-1" d="M158.91,70.66c10.58-.34,9.93-18-1.86-15.9C147.25,56.46,149.65,71,158.91,70.66Z"/> <path class="cls-1" d="M203.89,70.66c10.58-.34,9.93-18-1.86-15.9C192.23,56.46,194.62,71,203.89,70.66Z"/> <path class="cls-1" d="M149.17,88.47c4.28-8.1-3-17-11.48-15.54-5.16.87-6.93,3.54-7.78,5.16a11.34,11.34,0,0,0,0,10.38C133.51,95.25,145.11,96.09,149.17,88.47Z"/> <path class="cls-1" d="M178.14,78.09a11.34,11.34,0,0,0,0,10.38c3.59,6.79,15.2,7.62,19.25,0,4.28-8.1-3-17-11.48-15.54C180.75,73.8,179,76.46,178.14,78.09Z"/> <path class="cls-1" d="M222.25,99.81c-3.71-7-15.72-7.88-19.91,0a11,11,0,0,0-1.18,3.71H175.82a12,12,0,0,0-1.16-3.71c-3.71-7-15.72-7.88-19.91,0a11,11,0,0,0-1.18,3.71H127.83a12,12,0,0,0-1.16-3.71c-3.71-7-15.71-7.88-19.91,0a11,11,0,0,0-1.18,3.71H79.85a12,12,0,0,0-1.16-3.71c-3.71-7-15.72-7.88-19.91,0a11,11,0,0,0-1.18,3.71h-27A11.94,11.94,0,0,0,29.51,100c-3.71-7-15.72-7.88-19.91,0a10.92,10.92,0,0,0-1,2.86c-.07.23-.07.46-.13.69v57.33C8.44,194.31,39.71,226,78.31,226h17c15.88,47.78,78.29,56.31,68.79,48.51-21.58-17.71-21.77-38.31-21.77-48.51h18.36c40.08,0,62.95-29.66,62.95-58.18V107.85C223.63,104.38,223.1,101.43,222.25,99.81ZM21.35,131.16c4.19-7.88,16.19-7,19.91,0a11.73,11.73,0,0,1,0,10.73c-.88,1.68-2.7,4.44-8,5.34C24.49,148.73,16.92,139.53,21.35,131.16ZM48.5,171.94c-11.08,2-11.69-14.62-1.75-14.95C55.45,156.7,57.71,170.34,48.5,171.94Zm21.67,22.81c-8.87,1.58-9.35-11.7-1.4-12C75.74,182.55,77.54,193.47,70.17,194.75Zm13.45-52.86c-.88,1.68-2.7,4.44-8,5.34-8.73,1.5-16.29-7.7-11.87-16.07,4.19-7.88,16.19-7,19.91,0A11.72,11.72,0,0,1,83.62,141.89Zm10.84,30.05c-11.08,2-11.69-14.62-1.75-14.95C101.42,156.7,103.67,170.34,94.46,171.94Zm20.18,22.81c-8.87,1.58-9.35-11.7-1.4-12C120.21,182.55,122,193.47,114.65,194.75ZM126,141.89c-.88,1.68-2.7,4.44-8,5.34-8.72,1.5-16.29-7.7-11.86-16.07,4.19-7.88,16.19-7,19.91,0A11.73,11.73,0,0,1,126,141.89Zm12.95,30.05c-11.08,2-11.69-14.62-1.75-14.95C145.89,156.7,148.15,170.34,138.94,171.94Zm23.38,22.81c-8.87,1.58-9.35-11.7-1.4-12C167.88,182.55,169.68,193.47,162.31,194.75Zm6-52.86c-.88,1.68-2.7,4.44-8,5.34-8.72,1.5-16.29-7.7-11.87-16.07,4.19-7.88,16.19-7,19.91,0A11.73,11.73,0,0,1,168.35,141.89Zm18.25,30.05c-11.08,2-11.69-14.62-1.75-14.95C193.56,156.7,195.82,170.34,186.61,171.94Zm24.11-30.05c-.88,1.68-2.7,4.44-8,5.34-8.72,1.5-16.29-7.7-11.86-16.07,4.19-7.88,16.19-7,19.91,0A11.73,11.73,0,0,1,210.72,141.89Z"/></svg>